<?xml version="1.0" standalone="no"?>
<!DOCTYPE svg PUBLIC "-//W3C//DTD SVG 20010904//EN"
 "http://www.w3.org/TR/2001/REC-SVG-20010904/DTD/svg10.dtd">
<svg version="1.0" xmlns="http://www.w3.org/2000/svg"
 width="453.000000pt" height="550.000000pt" viewBox="0 0 453.000000 550.000000"
 preserveAspectRatio="xMidYMid meet">

<g transform="translate(0.000000,550.000000) scale(0.100000,-0.100000)"
fill="#000000" stroke="none">
<path d="M1863 5293 c-18 -2 -33 -10 -33 -17 0 -7 -11 -26 -25 -42 -22 -25
-55 -112 -55 -143 0 -5 -6 -14 -14 -18 -8 -5 -23 -55 -36 -123 -12 -63 -37
-196 -56 -295 -19 -99 -44 -227 -54 -285 -29 -148 -30 -151 -39 -146 -11 7
-76 -214 -96 -325 -8 -46 -19 -100 -25 -119 -5 -19 -18 -73 -29 -120 -93 -399
-123 -520 -135 -550 -14 -35 -18 -51 -57 -215 -11 -49 -27 -103 -34 -120 -13
-29 -64 -264 -73 -337 -5 -44 15 -59 68 -50 l35 6 -40 6 c-48 6 -54 25 -34
110 9 40 23 65 51 93 20 21 48 62 62 90 31 63 32 44 7 -83 -11 -52 -23 -132
-26 -176 -4 -45 -11 -87 -15 -93 -4 -7 -29 -19 -56 -26 l-49 -14 56 5 c52 6
57 4 62 -16 8 -32 0 -46 -52 -83 -47 -34 -47 -34 -196 -40 -199 -9 -201 -10
-218 -61 l-14 -41 -120 -6 c-66 -4 -128 -11 -139 -17 -22 -12 -69 -135 -60
-158 4 -12 1 -14 -13 -9 -25 8 -41 -20 -41 -69 0 -24 5 -36 14 -36 11 0 15
-18 18 -67 4 -88 -1 -123 -18 -123 -8 0 -14 -6 -14 -12 0 -7 -14 -24 -31 -38
-17 -14 -39 -32 -49 -40 -18 -14 -19 -29 -13 -263 l6 -249 46 -76 c37 -61 53
-78 81 -87 33 -11 35 -14 43 -71 21 -158 47 -265 73 -294 7 -9 15 -43 18 -75
8 -108 16 -135 47 -150 38 -20 170 -18 234 3 65 22 86 61 90 169 2 42 8 79 13
82 10 6 42 92 42 114 1 28 21 39 100 57 80 18 82 18 87 0 3 -11 22 -24 47 -32
30 -9 42 -19 44 -35 2 -14 10 -23 22 -23 15 0 19 -12 25 -80 l7 -80 34 0 c31
0 34 3 44 43 7 23 23 54 37 68 21 22 25 39 29 105 2 44 10 116 16 161 10 72 9
85 -6 108 -16 24 -16 30 -1 86 8 33 15 63 15 65 0 2 15 4 34 4 40 0 42 7 52
151 6 79 4 104 -11 142 -19 49 -17 154 5 337 5 41 14 129 21 195 11 113 15
126 61 218 27 53 51 97 53 97 15 0 226 -132 242 -151 31 -38 143 -277 143
-306 0 -18 6 -36 14 -40 8 -4 23 -29 34 -54 16 -38 26 -47 52 -53 40 -8 104
-8 151 0 32 5 38 11 53 54 10 27 23 51 31 54 7 2 16 24 20 47 7 40 111 265
137 297 29 34 231 152 246 143 6 -3 31 -48 57 -99 44 -88 48 -100 56 -205 8
-104 19 -218 39 -392 6 -57 4 -81 -11 -127 -21 -65 -24 -151 -8 -245 11 -62
12 -63 43 -63 31 0 32 -2 49 -65 16 -60 16 -67 1 -90 -11 -18 -14 -37 -10 -67
3 -24 10 -93 14 -154 9 -113 12 -124 43 -159 9 -11 22 -39 28 -62 11 -40 14
-43 46 -43 l34 0 7 80 c6 68 9 80 25 80 11 0 19 9 21 23 2 16 14 26 44 35 25
8 44 21 47 32 5 18 7 18 87 0 45 -10 86 -22 89 -27 4 -4 13 -33 20 -63 8 -30
21 -68 30 -85 9 -16 16 -48 15 -70 -1 -41 21 -130 38 -152 30 -38 231 -57 287
-28 31 15 39 43 47 149 2 33 8 62 12 65 24 16 57 137 76 279 11 85 11 85 46
97 27 9 45 28 84 89 l49 78 3 247 3 248 -39 29 c-21 16 -44 39 -51 51 -6 12
-20 24 -30 26 -16 4 -19 15 -19 74 0 82 8 116 25 109 18 -7 27 20 19 60 -7 36
-27 59 -44 49 -6 -4 -10 5 -10 23 0 15 -9 47 -20 70 -11 22 -20 46 -20 51 0
21 -46 33 -144 38 -135 6 -142 8 -149 40 -4 16 -10 34 -15 40 -11 17 -128 33
-252 33 l-105 0 -47 37 c-51 41 -62 60 -52 88 6 15 16 17 63 12 l56 -6 -49 14
c-54 15 -66 27 -65 65 2 48 -47 327 -50 284 0 -12 6 -57 15 -100 14 -66 16
-117 11 -302 -5 -153 -11 -230 -20 -247 -11 -21 -12 9 -9 197 l4 223 -37 195
c-96 507 -128 666 -136 683 -6 9 -17 17 -26 17 -26 0 -127 -33 -136 -45 -13
-16 6 -237 48 -590 37 -300 45 -417 44 -604 -1 -139 -4 -177 -9 -131 -30 273
-55 497 -85 750 -19 162 -41 363 -50 445 -9 83 -23 160 -31 172 -7 12 -72 67
-142 123 l-129 101 -6 72 c-3 40 -4 73 -3 75 2 1 28 -16 59 -37 31 -22 53 -33
50 -25 -3 8 -14 19 -24 25 -11 5 -19 16 -19 24 0 9 -14 24 -32 35 -48 29 -59
8 -52 -100 6 -75 10 -88 35 -115 21 -23 30 -46 39 -98 6 -37 17 -85 24 -105 8
-20 17 -57 20 -82 3 -25 15 -79 25 -120 28 -110 42 -169 52 -220 5 -25 11 -55
14 -67 5 -21 122 -120 131 -111 2 3 -17 19 -42 37 -25 18 -49 43 -53 55 -12
30 -22 106 -15 106 3 0 29 -19 59 -41 74 -58 78 -96 29 -263 -37 -123 -62
-166 -97 -166 -11 0 -45 -16 -77 -35 -32 -19 -62 -35 -67 -35 -5 0 -21 24 -36
53 -26 52 -27 60 -27 208 0 185 -13 367 -44 608 l-22 180 -41 44 c-23 25 -49
59 -57 76 l-17 31 -95 0 c-94 0 -95 0 -105 -27 -5 -15 -32 -50 -58 -78 l-47
-50 -18 -160 c-10 -88 -22 -190 -27 -227 -5 -37 -9 -171 -9 -298 0 -210 -2
-234 -20 -273 -11 -23 -28 -52 -38 -65 l-18 -24 -60 36 c-32 20 -68 36 -80 36
-42 0 -63 38 -103 188 l-20 73 64 49 c70 56 72 58 81 132 4 29 10 58 14 63 4
6 13 37 20 70 6 33 18 85 25 115 7 30 19 82 25 115 7 33 16 65 20 70 5 6 13
46 19 90 10 67 16 84 42 111 29 30 32 39 36 117 5 70 3 89 -10 102 -15 15 -18
14 -42 -1 -14 -9 -25 -22 -25 -29 0 -8 -10 -22 -23 -32 -13 -10 -27 -25 -32
-33 -5 -8 7 -3 26 13 18 15 46 34 62 42 l27 16 0 -38 c0 -99 -5 -105 -120
-196 -60 -47 -120 -93 -134 -102 -14 -9 -29 -31 -35 -48 -5 -18 -24 -156 -41
-307 -37 -327 -78 -689 -85 -745 -3 -22 -12 -107 -20 -189 -8 -82 -18 -152
-21 -155 -4 -3 -4 95 -1 219 5 206 23 412 61 719 27 209 38 335 34 385 l-3 48
-60 19 c-78 24 -94 24 -104 -3 -10 -29 -50 -226 -96 -473 -19 -104 -43 -228
-53 -275 -14 -70 -17 -129 -15 -330 3 -224 1 -243 -12 -217 -12 21 -17 78 -21
255 l-6 227 35 180 c20 99 52 266 72 370 46 246 105 539 109 543 2 1 52 -11
112 -28 60 -16 118 -30 130 -30 25 0 136 72 124 80 -19 12 9 84 45 114 l35 31
10 120 c5 66 14 170 20 230 5 61 15 160 20 220 5 61 15 160 20 220 21 225 23
294 11 308 -8 11 -8 61 3 208 7 106 12 199 9 205 -2 7 -16 14 -31 17 -15 3
-36 7 -47 10 -11 2 -35 2 -52 0z m58 -548 c-6 -61 -11 -139 -11 -174 0 -34 -5
-71 -10 -81 -6 -11 -16 -81 -23 -157 l-13 -138 -29 3 c-17 2 -32 6 -34 8 -2 2
2 62 9 135 11 101 17 132 29 137 10 5 1 9 -24 12 -40 5 -40 5 -42 50 -2 25 7
113 20 195 l22 150 55 5 c67 6 66 9 51 -145z m-196 -305 c3 -5 13 -6 23 -3 9
3 14 3 10 -2 -4 -4 0 -14 10 -21 14 -11 17 -28 15 -117 l-3 -104 42 -7 c45 -7
57 1 59 44 1 15 3 19 6 8 6 -24 -36 -418 -48 -439 -5 -11 -14 -19 -20 -19 -5
0 -27 -11 -48 -25 l-38 -25 -116 28 c-64 15 -119 30 -122 33 -2 3 0 21 5 40 6
19 24 111 40 204 37 219 75 373 96 396 18 20 78 26 89 9z m172 -162 c-2 -13
-4 -5 -4 17 -1 22 1 32 4 23 2 -10 2 -28 0 -40z m-370 -230 c-3 -8 -6 -5 -6 6
-1 11 2 17 5 13 3 -3 4 -12 1 -19z m-29 -146 l-22 -111 23 -25 22 -24 -21 -71
c-16 -55 -25 -71 -40 -71 -20 0 -20 2 -63 -224 -17 -86 -28 -121 -41 -128 -10
-5 -20 -7 -23 -4 -3 3 6 54 21 113 14 59 52 218 85 353 32 135 62 260 66 278
4 18 9 32 11 30 2 -3 -6 -54 -18 -116z m382 -104 c0 -21 -71 -98 -91 -98 -8 0
79 117 89 119 1 1 2 -9 2 -21z m-173 -155 c-3 -38 -9 -76 -12 -85 -7 -19 -35
-25 -35 -9 0 15 31 144 36 153 13 21 16 2 11 -59z m60 15 c-3 -8 -6 -5 -6 6
-1 11 2 17 5 13 3 -3 4 -12 1 -19z m109 -225 c-3 -16 -8 -49 -12 -76 -7 -52
-35 -85 -129 -152 -41 -29 -51 -32 -53 -19 -7 32 10 124 26 144 21 24 154 129
165 130 5 0 6 -12 3 -27z m830 -37 c38 -30 75 -65 81 -77 10 -20 34 -150 29
-156 -3 -4 -91 64 -138 107 -47 43 -49 47 -55 113 -3 41 -2 67 4 67 5 0 41
-24 79 -54z m-1142 -203 c-2 -109 -56 -596 -74 -662 -6 -20 -6 -39 0 -45 5 -7
5 -128 0 -291 -5 -154 -9 -309 -10 -344 0 -63 0 -64 -20 -46 -11 10 -29 16
-43 13 -24 -5 -24 -4 -23 78 1 46 3 76 7 68 5 -16 40 192 38 231 0 11 -9 -13
-19 -54 -21 -85 -41 -106 -79 -82 -11 7 -16 52 -23 193 -8 181 -8 186 22 343
17 88 34 176 37 195 13 90 84 447 93 467 9 21 11 21 52 9 l43 -12 -1 -61z
m1469 20 c16 -60 22 -91 82 -423 19 -107 41 -220 47 -250 15 -66 12 -409 -3
-457 -11 -36 -37 -43 -62 -19 -8 8 -20 49 -27 90 -20 121 -22 82 -3 -68 10
-75 20 -130 23 -121 3 10 6 -21 6 -67 1 -84 1 -85 -23 -80 -14 3 -32 -3 -43
-13 -20 -18 -20 -17 -20 36 0 30 -5 184 -10 343 -7 215 -7 292 2 297 6 4 8 15
4 25 -14 36 -89 680 -84 721 2 22 10 30 43 39 22 6 43 10 46 8 3 -2 13 -29 22
-61z m-770 50 c-7 -2 -19 -2 -25 0 -7 3 -2 5 12 5 14 0 19 -2 13 -5z m-427
-25 c-3 -13 -10 -48 -16 -79 -11 -54 -14 -59 -83 -112 -81 -63 -82 -62 -70 38
l8 59 75 58 c41 32 78 58 83 58 4 0 5 -10 3 -22z m857 0 c18 -13 53 -40 78
-61 46 -36 47 -39 54 -108 4 -38 5 -72 3 -74 -5 -5 -131 94 -141 110 -8 16
-36 155 -30 155 2 0 18 -10 36 -22z m-897 -195 c-3 -16 -8 -45 -12 -67 -5 -31
-17 -46 -66 -85 -33 -25 -63 -47 -67 -49 -11 -4 7 120 19 132 23 23 116 95
123 95 5 1 6 -11 3 -26z m974 -28 c67 -55 68 -56 73 -113 2 -31 3 -59 1 -61
-2 -2 -32 20 -67 48 -53 42 -66 58 -71 88 -4 21 -9 50 -12 66 -3 15 -2 27 2
27 4 0 37 -25 74 -55z m-1526 -158 c-10 -40 -20 -63 -22 -53 -5 23 30 156 36
138 2 -7 -4 -45 -14 -85z m511 -3 c-3 -26 -9 -53 -12 -60 -6 -16 -104 -96
-110 -91 -2 2 -1 28 3 58 6 49 11 58 57 97 28 23 55 42 60 42 5 0 6 -20 2 -46z
m-545 -139 c-16 -42 -21 -26 -7 25 8 30 13 38 15 24 1 -11 -2 -33 -8 -49z
m921 -377 c0 -13 3 -17 6 -10 3 8 35 12 108 12 99 0 104 -1 108 -22 3 -17 5
-14 6 10 2 51 21 37 21 -15 0 -71 -11 -123 -26 -123 -15 0 -21 -29 -29 -145
-3 -49 -9 -102 -11 -117 -4 -22 -2 -28 11 -28 15 0 17 -8 12 -57 -4 -32 -9
-88 -13 -125 l-6 -68 -74 0 c-53 0 -74 4 -74 13 0 6 -5 61 -11 120 -10 93 -9
110 3 120 13 10 14 28 7 107 -13 148 -19 180 -33 180 -12 0 -26 78 -26 146 0
31 20 32 21 2z m-1372 -334 c33 -7 42 -28 15 -38 -28 -11 -212 -7 -219 5 -11
16 2 23 58 30 76 9 111 10 146 3z m249 -25 c-3 -8 -7 -3 -11 10 -4 17 -3 21 5
13 5 -5 8 -16 6 -23z m2485 11 c-3 -12 -8 -19 -11 -16 -5 6 5 36 12 36 2 0 2
-9 -1 -20z m430 4 c10 -3 16 -11 14 -17 -4 -13 -174 -22 -214 -12 -32 8 -29
33 5 38 30 5 167 -1 195 -9z m-2583 -64 c0 -5 -2 -10 -4 -10 -3 0 -8 5 -11 10
-3 6 -1 10 4 10 6 0 11 -4 11 -10z m-416 -20 c14 -14 -2 -29 -62 -57 -54 -27
-64 -28 -202 -28 -136 0 -147 1 -178 24 -23 16 -32 30 -30 45 3 20 10 21 113
26 139 6 347 0 359 -10z m3116 -7 c24 -23 -40 -70 -108 -79 -83 -10 -242 1
-282 20 -19 9 -46 23 -60 29 -14 7 -25 19 -25 27 0 12 22 16 110 20 178 8 348
0 365 -17z m-3283 -105 c8 -14 6 -351 -3 -380 -3 -9 -18 -20 -35 -23 -41 -9
-75 15 -88 62 -15 54 -14 326 1 341 16 16 114 16 125 0z m3101 0 c15 -15 16
-287 1 -341 -17 -64 -92 -88 -118 -39 -12 23 -19 362 -8 380 11 16 109 16 125
0z m-2813 -262 c0 -98 -3 -118 -18 -133 -18 -17 -18 -14 -12 107 3 69 9 136
12 150 10 47 18 -5 18 -124z m2428 -28 c5 -75 4 -118 -3 -118 -19 0 -33 143
-23 229 9 77 18 40 26 -111z m-2959 18 c16 6 26 -25 26 -87 0 -53 -14 -71 -47
-58 -21 8 -23 15 -23 79 0 40 4 70 10 70 6 0 11 8 11 18 1 12 3 10 6 -5 3 -13
10 -20 17 -17z m337 -6 c11 0 12 -100 1 -116 -13 -20 -59 -26 -66 -8 -8 21 -8
74 1 115 l7 34 11 -40 12 -40 8 50 c6 32 10 42 13 28 2 -13 8 -23 13 -23z
m2820 -20 c2 -24 2 -24 6 -2 10 51 33 15 33 -51 0 -57 -9 -68 -45 -59 -29 8
-30 11 -33 70 -2 38 1 62 8 62 5 0 10 8 10 18 0 27 19 -7 21 -38z m349 -44 c0
-70 -7 -81 -46 -72 -21 6 -24 12 -24 57 0 53 15 93 31 84 5 -4 9 1 9 10 0 15
2 15 15 1 10 -10 15 -35 15 -80z m-3600 -14 c0 -7 -4 -10 -10 -7 -5 3 -10 16
-10 28 0 18 2 19 10 7 5 -8 10 -21 10 -28z m3670 21 c0 -5 -5 -15 -10 -23 -8
-12 -10 -11 -10 8 0 12 5 22 10 22 6 0 10 -3 10 -7z m-3338 -212 c5 -33 -9
-41 -74 -41 -42 0 -52 11 -44 46 6 22 11 24 60 24 52 0 54 -1 58 -29z m3102 4
c9 -36 0 -45 -44 -45 -56 0 -70 8 -70 41 0 28 1 29 54 29 49 0 54 -2 60 -25z
m-2560 -32 c-10 -40 -14 -41 -14 -5 0 18 5 32 10 32 6 0 8 -11 4 -27z m1926
10 c0 -10 -5 -25 -10 -33 -8 -13 -10 -13 -10 2 0 9 -3 23 -6 32 -4 11 -1 16
10 16 9 0 16 -8 16 -17z m-2183 -145 c-2 -24 -4 -7 -4 37 0 44 2 63 4 43 2
-21 2 -57 0 -80z m2431 -63 c4 -5 5 -30 2 -55 l-5 -45 -8 64 c-4 35 -6 98 -5
140 l2 76 3 -85 c2 -46 7 -89 11 -95z m-2726 120 c5 -16 5 -65 2 -107 -6 -66
-9 -78 -25 -79 -11 -1 -25 -2 -31 -3 -9 -1 -15 23 -19 74 -3 48 -6 4 -7 -124
-1 -110 -4 -197 -6 -195 -3 2 -7 93 -9 202 -4 158 -2 201 9 212 11 11 11 14
-1 19 -38 14 -5 35 49 33 24 -2 31 -8 38 -32z m3098 25 c12 -8 12 -11 -2 -27
-13 -14 -18 -41 -20 -103 -3 -83 -3 -85 -27 -82 -14 1 -26 4 -28 6 -19 19 -20
195 -2 207 18 11 60 11 79 -1z m0 -314 l-7 -161 0 220 c0 142 2 199 7 161 4
-32 4 -131 0 -220z m-2555 48 c-10 -101 -20 -182 -23 -180 -4 5 14 250 25 341
3 28 8 44 11 37 2 -8 -4 -97 -13 -198z m1928 51 l6 -120 -14 115 c-8 63 -14
126 -14 140 0 23 1 23 9 5 4 -12 10 -75 13 -140z m-2186 8 c-2 -16 -4 -5 -4
22 0 28 2 40 4 28 2 -13 2 -35 0 -50z m2960 0 c-3 -10 -5 -4 -5 12 0 17 2 24
5 18 2 -7 2 -21 0 -30z m-2970 -80 c-3 -10 -5 -4 -5 12 0 17 2 24 5 18 2 -7 2
-21 0 -30z m2460 -10 c-3 -10 -5 -4 -5 12 0 17 2 24 5 18 2 -7 2 -21 0 -30z
m-2470 -80 c-3 -10 -5 -2 -5 17 0 19 2 27 5 18 2 -10 2 -26 0 -35z m2480 0
c-3 -10 -5 -4 -5 12 0 17 2 24 5 18 2 -7 2 -21 0 -30z m-260 -60 c-2 -16 -4
-3 -4 27 0 30 2 43 4 28 2 -16 2 -40 0 -55z m-1970 -100 c-2 -16 -4 -5 -4 22
0 28 2 40 4 28 2 -13 2 -35 0 -50z m1980 0 c-2 -16 -4 -5 -4 22 0 28 2 40 4
28 2 -13 2 -35 0 -50z"/>
<path d="M1461 2384 c0 -11 3 -14 6 -6 3 7 2 16 -1 19 -3 4 -6 -2 -5 -13z"/>
<path d="M1451 2334 c0 -11 3 -14 6 -6 3 7 2 16 -1 19 -3 4 -6 -2 -5 -13z"/>
<path d="M1442 2250 c0 -14 2 -19 5 -12 2 6 2 18 0 25 -3 6 -5 1 -5 -13z"/>
<path d="M3022 2380 c0 -14 2 -19 5 -12 2 6 2 18 0 25 -3 6 -5 1 -5 -13z"/>
<path d="M3031 2334 c0 -11 3 -14 6 -6 3 7 2 16 -1 19 -3 4 -6 -2 -5 -13z"/>
<path d="M3042 2260 c0 -14 2 -19 5 -12 2 6 2 18 0 25 -3 6 -5 1 -5 -13z"/>
<path d="M2556 5291 c-4 -6 -18 -11 -32 -11 -22 0 -24 -4 -24 -47 0 -27 5
-122 11 -212 7 -124 7 -166 -2 -171 -12 -8 -11 -29 26 -460 34 -411 52 -588
61 -625 3 -13 21 -36 40 -50 25 -19 34 -34 34 -55 0 -16 5 -32 11 -36 8 -5 8
-9 -1 -14 -16 -10 86 -80 116 -80 11 0 69 14 129 30 59 17 110 28 113 26 4 -5
47 -221 143 -721 19 -99 36 -169 37 -156 3 21 7 18 32 -25 15 -27 44 -65 63
-86 28 -27 40 -52 51 -102 20 -83 15 -96 -38 -97 l-41 -1 35 -8 c43 -10 70 3
70 34 0 13 -14 88 -31 167 -17 79 -31 149 -33 154 -1 6 -4 15 -8 20 -3 6 -18
60 -33 120 -15 61 -44 171 -65 245 -21 74 -46 169 -55 210 -10 41 -32 138 -50
215 -18 77 -46 194 -60 260 -66 293 -101 418 -116 410 -4 -3 -10 4 -13 17 -2
13 -20 106 -40 208 -95 498 -119 615 -131 626 -7 7 -16 30 -20 51 -8 44 -25
78 -54 112 -12 13 -21 30 -21 38 0 7 -8 13 -19 13 -10 0 -32 3 -49 6 -17 4
-32 1 -36 -5z m128 -444 c25 -187 39 -326 33 -340 -4 -12 -19 -17 -44 -18 -21
-1 -31 -3 -22 -6 12 -3 18 -28 27 -111 7 -59 12 -122 12 -139 0 -31 -2 -33
-33 -33 l-34 0 -7 116 c-3 63 -13 143 -20 177 -13 54 -36 305 -36 377 0 24 2
25 59 22 l59 -4 6 -41z m148 -402 c30 12 62 -90 108 -345 11 -63 28 -153 37
-199 8 -46 16 -90 17 -98 1 -11 -30 -23 -117 -44 l-119 -29 -54 32 c-29 18
-56 39 -59 46 -11 30 -50 461 -41 469 3 4 6 -11 6 -33 0 -57 9 -66 59 -58 l42
7 -7 99 c-6 86 -4 101 11 118 10 11 22 17 26 14 5 -3 9 0 9 5 0 6 9 11 21 11
12 0 17 4 13 11 -5 8 -1 8 14 0 11 -6 27 -9 34 -6z m145 -427 c-3 -8 -6 -5 -6
6 -1 11 2 17 5 13 3 -3 4 -12 1 -19z m10 -55 c-3 -10 -5 -4 -5 12 0 17 2 24 5
18 2 -7 2 -21 0 -30z m47 -173 c14 -52 31 -120 36 -150 6 -30 30 -130 53 -222
22 -92 38 -171 34 -175 -4 -4 -16 2 -27 13 -14 14 -26 60 -45 167 -31 176 -31
175 -58 179 -18 2 -25 15 -39 73 -17 69 -17 70 5 93 20 21 20 26 9 80 -7 32
-12 65 -11 73 1 18 11 -12 43 -131z m-329 -88 c-10 -11 -80 56 -83 79 -3 20 3
17 42 -25 25 -27 44 -52 41 -54z m109 -78 c19 -73 20 -84 3 -84 -15 0 -37 81
-37 133 0 44 14 23 34 -49z m-80 41 c3 -8 1 -15 -4 -15 -6 0 -10 7 -10 15 0 8
2 15 4 15 2 0 6 -7 10 -15z m503 -747 c-3 -8 -6 -5 -6 6 -1 11 2 17 5 13 3 -3
4 -12 1 -19z m33 -107 c11 -46 19 -85 17 -88 -4 -3 -47 156 -47 173 0 20 11
-10 30 -85z m27 -123 c-3 -8 -6 -5 -6 6 -1 11 2 17 5 13 3 -3 4 -12 1 -19z"/>
</g>
</svg>
